<?xml version="1.0" encoding="UTF-8"?>
<svg xmlns="http://www.w3.org/2000/svg" width="1024" height="1024" viewBox="0 0 1024 1024" role="img" aria-label="Pharos">
  <rect width="1024" height="1024" rx="224" fill="#0d0d0d"/>
  <g fill="#00FF41" transform="translate(512 512) scale(2.12) translate(-203.5 -165.5)">
    <path d="M191.831 104.501C193.751 104.176 200.601 104.156 202.806 104.148C224.166 103.877 245.235 109.143 263.96 119.434C296.675 137.595 315.74 165.58 325.835 200.949C320.985 199.1 311.801 197.21 306.511 195.974C300.951 182.838 297.256 174.009 288.171 162.534C270.326 140.046 244.35 125.484 215.855 121.995C194.241 119.249 172.305 123.248 153.05 133.444C128.59 146.548 109.117 169.302 101.014 195.947C94.306 197.792 87.7405 198.724 80.8965 200.915C87.7035 181.692 90.627 169.513 104.444 152.42C128.022 123.25 155.135 108.928 191.831 104.501Z"/>
    <path d="M158.798 192.411L159.378 192.375C160.91 193.231 161.599 195.919 162.467 197.912C140.525 213.459 115.364 229.472 92.8615 244.444L57.9375 267.562C51.5555 271.742 45.119 276.212 38.518 279.972C33.5085 274.717 27.211 266.947 22.333 261.293L0 234.725C5.007 233.021 13.2435 231.016 18.5735 229.526L56.2725 219.112C90.335 209.784 124.513 200.883 158.798 192.411Z"/>
    <path d="M246.815 191.631C263.19 196.538 282.02 200.98 298.81 205.458C334.66 214.909 370.43 224.664 406.115 234.722C399.1 242.375 391.19 252.366 384.52 260.502C379.335 266.472 372.97 274.672 367.44 280.022C357.02 273.702 345.69 265.787 335.505 258.969L285.765 225.647L260.685 208.822C256.525 206.022 249.225 201.312 245.735 198.026C244.935 195.728 245.87 193.776 246.815 191.631Z"/>
    <path d="M190.305 229.969C191.345 230.409 192.395 230.828 193.45 231.228C202.44 234.598 208.6 233.854 217.16 229.955C223.225 253.547 229.03 278.097 234.63 301.802C224.865 304.642 208.53 311.852 198.73 315.812C187.291 320.507 175.882 325.277 164.505 330.122C166.834 323.217 169.081 313.212 170.901 305.982L183.125 257.449C185.252 249.005 187.669 238.002 190.305 229.969Z"/>
    <path d="M164.603 208.777C166.059 209.936 174.46 221.375 177.594 224.705C171.393 243.437 165.79 267.077 160.081 286.612C156.097 284.102 141.166 278.632 134.743 275.377C126.406 270.592 117.786 264.111 109.896 258.428C116.963 250.831 129.189 240.352 137.246 233.078C144.869 226.196 156.894 214.536 164.603 208.777Z"/>
    <path d="M199.431 162.631C215.156 160.011 230.061 170.523 232.876 186.213C235.686 201.904 225.361 216.939 209.706 219.945C199.406 221.923 188.837 218.209 182.04 210.222C175.243 202.235 173.267 191.209 176.866 181.359C180.465 171.508 189.084 164.354 199.431 162.631Z"/>
    <path d="M241.996 208.572C244.886 209.943 258.781 223.476 262.106 226.573L296.166 258.146C287.886 264.011 279.886 269.567 271.251 274.897C263.931 279.052 253.751 282.502 245.666 286.062C241.136 273.917 237.486 254.853 233.581 242.074C231.901 236.567 230.781 230.005 228.446 224.659C234.151 219.055 237.356 215.009 241.996 208.572Z"/>
    <path d="M196.765 0.627333C211.455 -2.56017 225.965 6.70982 229.25 21.3803C232.53 36.0508 223.35 50.6188 208.705 53.9943C193.92 57.3998 179.192 48.1213 175.88 33.3178C172.569 18.5138 181.942 3.84433 196.765 0.627333Z"/>
    <path d="M280.266 97.0663C284.596 97.6443 293.841 104.292 297.776 106.967C331.886 130.142 354.656 169.995 361.826 210.426L356.851 208.683C352.746 207.349 348.081 206.197 343.806 204.874C343.271 200.915 341.906 195.399 340.786 191.557C329.881 154.056 305.846 124.881 271.936 106.174C274.831 103.64 277.931 100.128 280.266 97.0663Z"/>
    <path d="M123.309 97.3008C126.623 97.7183 130.623 102.98 133.803 105.866C94.486 127.993 71.6485 160.879 62.5745 204.977C59.656 205.851 56.7185 206.662 53.7645 207.409C50.4135 208.498 48.017 209.326 44.7935 210.716C46.6985 201.66 49.068 192.708 51.8935 183.896C63.6835 148.179 89.3865 114.349 123.309 97.3008Z"/>
    <path d="M195.86 73.5248C223.33 72.5478 243.545 77.6853 268.235 89.0503C264.385 92.4153 261.435 94.8643 258.015 98.7103C240.905 91.4708 227.175 87.7708 208.355 87.1693C187.668 86.5763 165.39 89.6448 146.632 98.7763C142.959 95.3178 140.188 92.8143 136.244 89.6308C154.886 79.0053 174.945 75.5343 195.86 73.5248Z"/>
    <path d="M309.381 66.4258C319.446 63.7533 329.776 69.7123 332.496 79.7598C335.221 89.8078 329.311 100.167 319.281 102.941C309.171 105.734 298.726 99.7758 295.981 89.6563C293.236 79.5373 299.251 69.1173 309.381 66.4258Z"/>
    <path d="M85.4735 66.5923C92.0265 64.7178 99.081 66.5228 103.928 71.3148C108.775 76.1068 110.661 83.1403 108.862 89.7148C107.062 96.2888 101.857 101.381 95.2455 103.037C85.2555 105.538 75.1055 99.5668 72.438 89.6198C69.771 79.6728 75.572 69.4248 85.4735 66.5923Z"/>
    <path d="M266.596 161.049C268.646 161.351 269.746 162.007 270.776 163.712C270.076 167.607 253.061 182.45 249.191 185.713C247.751 185.594 246.601 184.314 245.271 183.275C252.316 175.808 259.426 168.399 266.596 161.049Z"/>
    <path d="M140.227 160.385C147.284 167.539 154.121 174.907 160.73 182.478C159.603 183.746 158.878 184.854 157.32 185.437C153.287 181.493 138.308 166.265 135.175 163.969L140.227 160.385Z"/>
  </g>
</svg>
