<svg xmlns="http://www.w3.org/2000/svg" width="920" height="320" viewBox="0 0 920 320" role="img">
  <defs>
    <linearGradient id="ph" x1="0%" y1="0%" x2="0%" y2="100%">
      <stop offset="0%" stop-color="#2563eb"/>
      <stop offset="100%" stop-color="#1a56db"/>
    </linearGradient>
    <marker id="m" markerWidth="8" markerHeight="8" refX="6" refY="4" orient="auto">
      <path d="M0,0 L8,4 L0,8 z" fill="#94a3b8"/>
    </marker>
    <style>
      .bg { fill: #f8fafc; }
      .panel { fill: #ffffff; stroke: #cbd5e1; stroke-width: 1.5; }
      .chrome { fill: #e2e8f0; }
      .dashInner { fill: #f1f5f9; stroke: #cbd5e1; stroke-width: 1; }
      .bar { fill: #2563eb; opacity: 0.3; }
      .row { fill: #cbd5e1; }
      .muted { fill: #64748b; font-family: ui-sans-serif, system-ui, sans-serif; font-size: 13px; }
      .label { fill: #0f172a; font-family: ui-sans-serif, system-ui, sans-serif; font-size: 14px; font-weight: 600; }
      .arrow { stroke: #94a3b8; stroke-width: 2; fill: none; marker-end: url(#m); }
      .chip { fill: #eff6ff; stroke: #93c5fd; stroke-width: 1; }
      .beam { fill: url(#ph); opacity: 0.12; }
      @media (prefers-color-scheme: dark) {
        .bg { fill: #0f172a; }
        .panel { fill: #1e293b; stroke: #334155; }
        .chrome { fill: #334155; }
        .dashInner { fill: #0f172a; stroke: #475569; }
        .muted { fill: #94a3b8; }
        .label { fill: #f1f5f9; }
        .arrow { stroke: #64748b; }
        .chip { fill: #1e3a5f; stroke: #3b82f6; }
        .row { fill: #475569; }
        #m path { fill: #64748b; }
      }
    </style>
  </defs>
  <rect class="bg" width="920" height="320" rx="12"/>
  <path class="beam" d="M460 28 L518 276 L402 276 Z"/>
  <g transform="translate(40,56)">
    <rect class="panel" x="0" y="0" width="200" height="208" rx="10"/>
    <text class="label" x="16" y="32">Agent sessions</text>
    <text class="muted" x="16" y="54">Local JSONL transcripts</text>
    <rect class="chip" x="16" y="72" width="168" height="28" rx="6"/>
    <rect class="chip" x="16" y="108" width="140" height="28" rx="6"/>
    <rect class="chip" x="16" y="144" width="156" height="28" rx="6"/>
    <text class="muted" x="24" y="91" font-size="11px">session ???.jsonl</text>
    <text class="muted" x="24" y="127" font-size="11px">session ???.jsonl</text>
    <text class="muted" x="24" y="163" font-size="11px">session ???.jsonl</text>
  </g>
  <path class="arrow" d="M 252 164 H 288"/>
  <g transform="translate(300,72)">
    <rect width="200" height="176" rx="12" fill="url(#ph)"/>
    <text fill="#f8fafc" x="100" y="42" text-anchor="middle" font-family="ui-sans-serif, system-ui, sans-serif" font-size="15px" font-weight="700">Pharos daemon</text>
    <text fill="#bfdbfe" x="100" y="66" text-anchor="middle" font-family="ui-sans-serif, system-ui, sans-serif" font-size="12px">tail ? normalize ? stream</text>
    <rect x="24" y="88" width="152" height="64" rx="8" fill="#1244b4" opacity="0.85"/>
    <text fill="#e0f2fe" x="100" y="116" text-anchor="middle" font-family="ui-mono, monospace" font-size="11px">EventEnvelope</text>
    <text fill="#bae6fd" x="100" y="136" text-anchor="middle" font-family="ui-sans-serif, system-ui, sans-serif" font-size="10px">WebSocket fan-out</text>
  </g>
  <path class="arrow" d="M 512 164 H 548"/>
  <g transform="translate(560,56)">
    <rect class="panel" x="0" y="0" width="320" height="208" rx="10"/>
    <path class="chrome" d="M0 0 H320 V28 H0 Z"/>
    <rect class="chrome" x="0" y="22" width="320" height="14" rx="0"/>
    <circle cx="22" cy="14" r="5" fill="#f87171"/>
    <circle cx="40" cy="14" r="5" fill="#fbbf24"/>
    <circle cx="58" cy="14" r="5" fill="#4ade80"/>
    <text class="muted" x="160" y="18" text-anchor="middle" font-size="11px">Dashboard</text>
    <rect class="bar" x="20" y="52" width="120" height="8" rx="2"/>
    <rect class="bar" x="20" y="68" width="100" height="8" rx="2" opacity="0.85"/>
    <rect class="bar" x="20" y="84" width="108" height="8" rx="2" opacity="0.7"/>
    <rect class="dashInner" x="160" y="52" width="140" height="100" rx="6"/>
    <text class="muted" x="230" y="82" text-anchor="middle" font-size="11px">Sessions</text>
    <rect class="row" x="176" y="94" width="108" height="10" rx="2"/>
    <rect class="row" x="176" y="112" width="88" height="10" rx="2"/>
    <rect class="row" x="176" y="130" width="96" height="10" rx="2"/>
  </g>
</svg>
